<mxfile host="app.diagrams.net" modified="2023-08-25T18:31:34.795Z" agent="Mozilla/5.0 (Windows NT 10.0; Win64; x64) AppleWebKit/537.36 (KHTML, like Gecko) Chrome/116.0.0.0 Safari/537.36" etag="pdQjPrLuLiy-L8928e3x" version="21.6.9" type="device">
  <diagram id="cX9Rxq1GDXvq4FwfHjqG" name="Page-1">
    <mxGraphModel dx="966" dy="528" grid="0" gridSize="10" guides="1" tooltips="1" connect="1" arrows="1" fold="1" page="1" pageScale="1" pageWidth="850" pageHeight="1100" math="0" shadow="0">
      <root>
        <mxCell id="0" />
        <mxCell id="1" parent="0" />
        <mxCell id="Al2Hx1_4yKHsVUsdX7k0-1" value="Администратор" style="shape=umlActor;verticalLabelPosition=bottom;verticalAlign=top;html=1;" parent="1" vertex="1">
          <mxGeometry x="399" y="237.5" width="30" height="60" as="geometry" />
        </mxCell>
        <mxCell id="vug4XK5EKjmrTgcnU8m1-2" value="Измена пице" style="ellipse;whiteSpace=wrap;html=1;fillColor=none;" parent="1" vertex="1">
          <mxGeometry x="290" y="90" width="110" height="70" as="geometry" />
        </mxCell>
        <mxCell id="vug4XK5EKjmrTgcnU8m1-3" value="Претрага пица" style="ellipse;whiteSpace=wrap;html=1;fillColor=none;" parent="1" vertex="1">
          <mxGeometry x="200" y="150" width="100" height="70" as="geometry" />
        </mxCell>
        <mxCell id="vug4XK5EKjmrTgcnU8m1-4" value="Пријављивање администратора" style="ellipse;whiteSpace=wrap;html=1;fillColor=none;" parent="1" vertex="1">
          <mxGeometry x="420" y="90" width="110" height="70" as="geometry" />
        </mxCell>
        <mxCell id="vug4XK5EKjmrTgcnU8m1-5" value="Унос администратора" style="ellipse;whiteSpace=wrap;html=1;fillColor=none;" parent="1" vertex="1">
          <mxGeometry x="525" y="140" width="100" height="70" as="geometry" />
        </mxCell>
        <mxCell id="vug4XK5EKjmrTgcnU8m1-6" value="Измена администратора" style="ellipse;whiteSpace=wrap;html=1;fillColor=none;" parent="1" vertex="1">
          <mxGeometry x="550" y="230" width="110" height="75" as="geometry" />
        </mxCell>
        <mxCell id="vug4XK5EKjmrTgcnU8m1-7" value="Брисање администратора" style="ellipse;whiteSpace=wrap;html=1;fillColor=none;" parent="1" vertex="1">
          <mxGeometry x="520" y="330" width="110" height="70" as="geometry" />
        </mxCell>
        <mxCell id="vug4XK5EKjmrTgcnU8m1-8" value="Унос пице" style="ellipse;whiteSpace=wrap;html=1;fillColor=none;" parent="1" vertex="1">
          <mxGeometry x="170" y="240" width="110" height="70" as="geometry" />
        </mxCell>
        <mxCell id="vug4XK5EKjmrTgcnU8m1-9" value="Претрага администратора" style="ellipse;whiteSpace=wrap;html=1;fillColor=none;" parent="1" vertex="1">
          <mxGeometry x="195" y="335" width="110" height="80" as="geometry" />
        </mxCell>
        <mxCell id="vug4XK5EKjmrTgcnU8m1-10" value="Брисање пице" style="ellipse;whiteSpace=wrap;html=1;fillColor=none;" parent="1" vertex="1">
          <mxGeometry x="440" y="400" width="100" height="75" as="geometry" />
        </mxCell>
        <mxCell id="vug4XK5EKjmrTgcnU8m1-11" value="Унос рачуна" style="ellipse;whiteSpace=wrap;html=1;fillColor=none;" parent="1" vertex="1">
          <mxGeometry x="300" y="400" width="100" height="75" as="geometry" />
        </mxCell>
        <mxCell id="vug4XK5EKjmrTgcnU8m1-12" value="" style="endArrow=none;html=1;rounded=0;" parent="1" edge="1">
          <mxGeometry width="50" height="50" relative="1" as="geometry">
            <mxPoint x="430" y="220" as="sourcePoint" />
            <mxPoint x="460" y="170" as="targetPoint" />
            <Array as="points" />
          </mxGeometry>
        </mxCell>
        <mxCell id="vug4XK5EKjmrTgcnU8m1-15" value="" style="endArrow=none;html=1;rounded=0;" parent="1" edge="1">
          <mxGeometry width="50" height="50" relative="1" as="geometry">
            <mxPoint x="400" y="220" as="sourcePoint" />
            <mxPoint x="370" y="170" as="targetPoint" />
            <Array as="points" />
          </mxGeometry>
        </mxCell>
        <mxCell id="vug4XK5EKjmrTgcnU8m1-16" value="" style="endArrow=none;html=1;rounded=0;" parent="1" edge="1">
          <mxGeometry width="50" height="50" relative="1" as="geometry">
            <mxPoint x="460" y="240" as="sourcePoint" />
            <mxPoint x="520" y="200" as="targetPoint" />
            <Array as="points" />
          </mxGeometry>
        </mxCell>
        <mxCell id="vug4XK5EKjmrTgcnU8m1-17" value="" style="endArrow=none;html=1;rounded=0;entryX=0.34;entryY=-0.04;entryDx=0;entryDy=0;entryPerimeter=0;" parent="1" target="vug4XK5EKjmrTgcnU8m1-10" edge="1">
          <mxGeometry width="50" height="50" relative="1" as="geometry">
            <mxPoint x="440" y="330" as="sourcePoint" />
            <mxPoint x="470" y="390" as="targetPoint" />
            <Array as="points" />
          </mxGeometry>
        </mxCell>
        <mxCell id="vug4XK5EKjmrTgcnU8m1-18" value="" style="endArrow=none;html=1;rounded=0;" parent="1" edge="1">
          <mxGeometry width="50" height="50" relative="1" as="geometry">
            <mxPoint x="360" y="270" as="sourcePoint" />
            <mxPoint x="290" y="270" as="targetPoint" />
            <Array as="points" />
          </mxGeometry>
        </mxCell>
        <mxCell id="vug4XK5EKjmrTgcnU8m1-19" value="" style="endArrow=none;html=1;rounded=0;" parent="1" edge="1">
          <mxGeometry width="50" height="50" relative="1" as="geometry">
            <mxPoint x="370" y="240" as="sourcePoint" />
            <mxPoint x="300" y="200" as="targetPoint" />
            <Array as="points" />
          </mxGeometry>
        </mxCell>
        <mxCell id="vug4XK5EKjmrTgcnU8m1-20" value="" style="endArrow=none;html=1;rounded=0;exitX=0.656;exitY=-0.048;exitDx=0;exitDy=0;exitPerimeter=0;" parent="1" source="vug4XK5EKjmrTgcnU8m1-11" edge="1">
          <mxGeometry width="50" height="50" relative="1" as="geometry">
            <mxPoint x="370" y="390" as="sourcePoint" />
            <mxPoint x="390" y="330" as="targetPoint" />
            <Array as="points" />
          </mxGeometry>
        </mxCell>
        <mxCell id="vug4XK5EKjmrTgcnU8m1-21" value="" style="endArrow=none;html=1;rounded=0;exitX=0.953;exitY=0.181;exitDx=0;exitDy=0;exitPerimeter=0;" parent="1" source="vug4XK5EKjmrTgcnU8m1-9" edge="1">
          <mxGeometry width="50" height="50" relative="1" as="geometry">
            <mxPoint x="325" y="360" as="sourcePoint" />
            <mxPoint x="360" y="310" as="targetPoint" />
            <Array as="points" />
          </mxGeometry>
        </mxCell>
        <mxCell id="vug4XK5EKjmrTgcnU8m1-22" value="" style="endArrow=none;html=1;rounded=0;exitX=0;exitY=0.286;exitDx=0;exitDy=0;exitPerimeter=0;" parent="1" source="vug4XK5EKjmrTgcnU8m1-7" edge="1">
          <mxGeometry width="50" height="50" relative="1" as="geometry">
            <mxPoint x="490" y="360" as="sourcePoint" />
            <mxPoint x="470" y="310" as="targetPoint" />
            <Array as="points" />
          </mxGeometry>
        </mxCell>
        <mxCell id="vug4XK5EKjmrTgcnU8m1-23" value="" style="endArrow=none;html=1;rounded=0;" parent="1" edge="1">
          <mxGeometry width="50" height="50" relative="1" as="geometry">
            <mxPoint x="460" y="268" as="sourcePoint" />
            <mxPoint x="540" y="268" as="targetPoint" />
            <Array as="points" />
          </mxGeometry>
        </mxCell>
      </root>
    </mxGraphModel>
  </diagram>
</mxfile>
